<?xml version="1.0" encoding="UTF-8"?>
<svg width="1000px" height="1000px" viewBox="0 0 1000 1000" version="1.1" xmlns="http://www.w3.org/2000/svg" xmlns:xlink="http://www.w3.org/1999/xlink">
    <title>Msgport Profile Picture备份</title>
    <g id="页面-2" stroke="none" stroke-width="1" fill="none" fill-rule="evenodd">
        <g id="Msgport-Profile-Picture备份">
            <rect id="矩形" stroke="#979797" fill="#000000" x="0.5" y="0.5" width="999" height="999" rx="499.5"></rect>
            <path d="M500,98 C611.009235,98 711.509235,142.995383 784.256926,215.743074 C857.004617,288.490765 902,388.990765 902,500 C902,611.009235 857.004617,711.509235 784.256926,784.256926 C711.509235,857.004617 611.009235,902 500,902 C388.990765,902 288.490765,857.004617 215.743074,784.256926 C142.995383,711.509235 98,611.009235 98,500 C98,388.990765 142.995383,288.490765 215.743074,215.743074 C288.490765,142.995383 388.990765,98 500,98 Z M381.783922,778.926113 L380.816486,779.380039 C351.995092,792.818871 321.972113,804.113757 290.953492,813.060209 C350.740303,853.078909 422.645368,876.41206 500,876.41206 C502.830427,876.41206 505.653559,876.380825 508.469069,876.318678 C485.695593,852.311781 464.816719,826.493297 446.07214,799.101451 C440.199862,801.199371 433.871526,802.341709 427.276382,802.341709 C411.842937,802.341709 397.870575,796.086069 387.756575,785.972068 C385.578829,783.794323 383.579968,781.437694 381.783922,778.926113 Z M619.297476,584.029711 L614.631649,590.294117 C576.140548,641.152546 530.013848,685.911634 477.957741,722.865298 C481.299919,730.030209 483.165829,738.023332 483.165829,746.452261 C483.165829,761.491649 477.225558,775.143612 467.563315,785.18985 C489.517312,817.2028 514.51628,846.967524 542.139983,874.066187 C673.289169,859.469013 784.086295,777.479489 839.135435,663.519754 C773.148664,623.487898 698.786264,595.91798 619.297476,584.029711 Z M282.179375,631.319855 L279.931356,632.355015 C243.46265,649.240189 208.98658,669.699327 176.952922,693.283263 C199.998675,731.748085 229.732029,765.748803 264.537885,793.69013 C301.913962,784.266152 337.88123,771.316459 372.070545,755.216308 C371.620424,752.361086 371.386935,749.433941 371.386935,746.452261 C371.386935,731.018817 377.642574,717.046455 387.756575,706.932454 C389.145432,705.543597 390.607046,704.227496 392.135209,702.99036 C388.317624,694.500795 384.686083,685.909954 381.244438,677.223145 C375.235862,678.463675 369.010644,679.115578 362.633166,679.115578 C337.34463,679.115578 314.450158,668.865373 297.877819,652.293035 C291.697987,646.113203 286.397278,639.054248 282.179375,631.319855 Z M427.276382,716.150754 C418.908852,716.150754 411.333475,719.542366 405.84998,725.02586 C400.366486,730.509354 396.974874,738.084731 396.974874,746.452261 C396.974874,754.819792 400.366486,762.395168 405.84998,767.878663 C411.333475,773.362157 418.908852,776.753769 427.276382,776.753769 C435.643912,776.753769 443.219289,773.362157 448.702783,767.878663 C454.186278,762.395168 457.577889,754.819792 457.577889,746.452261 C457.577889,738.084731 454.186278,730.509354 448.702783,725.02586 C443.219289,719.542366 435.643912,716.150754 427.276382,716.150754 Z M530.301508,577.437186 C504.471648,577.437186 479.025152,579.078516 454.060649,582.262703 C454.160844,584.00953 454.211055,585.767746 454.211055,587.537688 C454.211055,612.826224 443.960851,635.720697 427.388512,652.293035 C420.925315,658.756233 413.500525,664.257838 405.34715,668.564844 C408.467962,676.418379 411.75352,684.189028 415.197073,691.873578 C419.087574,691.01451 423.129228,690.562814 427.276382,690.562814 C440.444833,690.562814 452.549586,695.117048 462.101506,702.736382 C510.546349,668.505224 553.663376,627.233593 589.960945,580.392182 C570.341444,578.434694 550.43797,577.437186 530.301508,577.437186 Z M303.614604,360.206843 L303.073895,360.539059 C236.76799,401.396291 176.431789,451.012058 123.679058,507.77259 C124.854378,566.357641 139.422805,621.651224 164.442002,670.727038 C198.278487,646.09263 234.687279,624.787019 273.192018,607.290888 C271.792522,600.929677 271.055276,594.319779 271.055276,587.537688 C271.055276,562.249153 281.305481,539.35468 297.877819,522.782342 C309.27297,511.387191 323.657191,502.981112 339.753492,498.841095 C338.405833,482.124378 337.718593,465.217821 337.718593,448.150754 C337.718593,427.895147 338.686605,407.865625 340.578829,388.105918 C329.707006,384.331994 319.965737,378.13919 311.998701,370.172154 C308.928187,367.10164 306.121208,363.76759 303.614604,360.206843 Z M362.633166,521.547739 C344.410544,521.547739 327.913057,528.933915 315.971225,540.875747 C304.029393,552.81758 296.643216,569.315067 296.643216,587.537688 C296.643216,605.76031 304.029393,622.257797 315.971225,634.199629 C327.913057,646.141461 344.410544,653.527638 362.633166,653.527638 C380.855787,653.527638 397.353275,646.141461 409.295107,634.199629 C421.236939,622.257797 428.623116,605.76031 428.623116,587.537688 C428.623116,569.315067 421.236939,552.81758 409.295107,540.875747 C397.353275,528.933915 380.855787,521.547739 362.633166,521.547739 Z M860.06403,389.929045 L859.638492,388.552402 L862.009841,388.02686 C830.336936,395.127531 797.916316,400.248223 764.884407,403.252143 C762.335159,417.459375 755.457578,430.165415 745.665768,439.957225 C733.114659,452.508334 715.775463,460.271357 696.623116,460.271357 C694.514668,460.271357 692.428194,460.177273 690.367664,459.993076 C675.308147,495.150836 657.098791,528.641673 636.097437,560.110431 L635.671296,560.745769 L638.8598,561.287566 C714.708851,574.634015 785.82321,601.719196 849.541449,639.882102 C866.882526,596.647224 876.41206,549.436467 876.41206,500 L876.41206,497.949761 C876.206276,460.385645 870.50414,424.123715 860.06403,389.929045 Z M362.633166,545.115578 C374.347708,545.115578 384.953236,549.863834 392.630128,557.540726 C400.30702,565.217618 405.055276,575.823146 405.055276,587.537688 C405.055276,599.252231 400.30702,609.857758 392.630128,617.53465 C384.953236,625.211543 374.347708,629.959799 362.633166,629.959799 C350.918623,629.959799 340.313096,625.211543 332.636204,617.53465 C324.959312,609.857758 320.211055,599.252231 320.211055,587.537688 C320.211055,575.823146 324.959312,565.217618 332.636204,557.540726 C340.313096,549.863834 350.918623,545.115578 362.633166,545.115578 Z M362.633166,563.969849 C356.125087,563.969849 350.233127,566.60777 345.968187,570.87271 C341.703247,575.13765 339.065327,581.029609 339.065327,587.537688 C339.065327,594.045768 341.703247,599.937727 345.968187,604.202667 C350.233127,608.467607 356.125087,611.105528 362.633166,611.105528 C369.141245,611.105528 375.033205,608.467607 379.298145,604.202667 C383.563085,599.937727 386.201005,594.045768 386.201005,587.537688 C386.201005,581.029609 383.563085,575.13765 379.298145,570.87271 C375.033205,566.60777 369.141245,563.969849 362.633166,563.969849 Z M418.654566,370.172154 C405.130287,383.696432 386.493369,392.108071 365.891646,392.259234 C364.180451,410.65932 363.306533,429.302976 363.306533,448.150754 C363.306533,464.255821 363.944613,480.211853 365.196909,495.994943 C389.467086,496.662215 411.378124,506.771953 427.388512,522.782342 C436.970921,532.364751 444.43962,544.06087 449.03524,557.111333 C475.631199,553.639229 502.757323,551.849246 530.301508,551.849246 C556.438062,551.849246 582.198199,553.460954 607.494675,556.611408 C630.119775,524.255063 649.614629,489.549509 665.542658,452.934303 C658.86732,449.582557 652.80851,445.185272 647.580463,439.957225 C637.845332,430.222094 630.99079,417.606372 628.405054,403.498276 C559.279486,397.460908 492.808322,382.157542 430.242632,358.836182 L428.430716,358.158908 C425.586177,362.494844 422.306796,366.519923 418.654566,370.172154 Z M224.901367,243.082271 L224.079857,243.962209 C168.164228,304.191829 131.728061,382.758194 124.794395,469.640289 C175.047116,418.970341 231.381375,374.334714 292.614934,336.932306 C290.851517,330.537999 289.909548,323.801114 289.909548,316.844221 C289.909548,308.08123 291.404099,299.66731 294.152207,291.843456 C270.376169,277.013755 247.481069,260.901773 225.562814,243.606727 L224.901367,243.082271 Z M696.623116,347.145729 C684.536683,347.145729 673.594472,352.044723 665.673869,359.965326 C657.753266,367.885929 652.854271,378.82814 652.854271,390.914573 C652.854271,403.001005 657.753266,413.943217 665.673869,421.863819 C673.594472,429.784422 684.536683,434.683417 696.623116,434.683417 C708.709548,434.683417 719.651759,429.784422 727.572362,421.863819 C735.492965,413.943217 740.39196,403.001005 740.39196,390.914573 C740.39196,378.82814 735.492965,367.885929 727.572362,359.965326 C719.651759,352.044723 708.709548,347.145729 696.623116,347.145729 Z M714.505287,234.228058 L710.714222,234.378062 C614.476084,239.062406 522.395825,259.580172 437.023174,293.382589 C439.438011,300.767829 440.743719,308.653543 440.743719,316.844221 C440.743719,322.977053 440.01169,328.93891 438.630243,334.647182 C498.593736,357.055344 562.278914,371.837487 628.503816,377.815003 C631.158643,363.915062 637.964223,351.488161 647.580463,341.871921 C660.131573,329.320811 677.470769,321.557789 696.623116,321.557789 C699.543558,321.557789 702.421842,321.738292 705.24742,322.08875 C710.429724,293.461815 713.567044,264.122186 714.505287,234.228058 Z M753.18593,233.346734 C748.821405,233.346734 744.464485,233.37927 740.128458,233.452871 C739.179318,266.337204 735.677943,298.584741 729.815662,330.001871 C735.659407,333.192177 740.994242,337.200394 745.665768,341.871921 C755.225455,351.431608 762.007443,363.768993 764.697227,377.569572 C794.054746,374.814501 822.909757,370.327035 851.158479,364.2118 C832.12296,314.971148 803.011155,270.738538 766.361633,234.034739 L765.50704,233.431887 C761.405625,233.375634 757.299152,233.346734 753.18593,233.346734 Z M365.326633,267.015075 C351.566695,267.015075 339.109408,272.592392 330.092106,281.609694 C321.074805,290.626996 315.497487,303.084282 315.497487,316.844221 C315.497487,330.60416 321.074805,343.061446 330.092106,352.078748 C339.109408,361.09605 351.566695,366.673367 365.326633,366.673367 C379.086572,366.673367 391.543858,361.09605 400.56116,352.078748 C409.578462,343.061446 415.155779,330.60416 415.155779,316.844221 C415.155779,303.084282 409.578462,290.626996 400.56116,281.609694 C391.543858,272.592392 379.086572,267.015075 365.326633,267.015075 Z M500,123.58794 C485.703347,123.58794 471.592834,124.384866 457.710472,125.936818 C433.191687,164.075986 412.898298,205.18738 397.491509,248.611153 C405.39568,252.343085 412.546543,257.408266 418.654566,263.516289 C420.895424,265.757147 422.995922,268.138367 424.94174,270.645628 C514.834561,234.712145 612.004715,213.098674 713.627686,208.627337 L714.766312,208.578955 L714.763049,208.100577 C714.694827,202.220981 714.54156,196.361826 714.304419,190.524287 C653.49447,148.317117 579.635042,123.58794 500,123.58794 Z M424.397065,131.182171 L422.798011,131.511875 C354.564087,145.734255 293.100875,178.425158 243.450411,223.777136 L242.666131,224.496 L243.280433,224.97988 C263.566847,240.884682 284.714734,255.743213 306.64057,269.473606 C308.321031,267.393378 310.110011,265.404978 311.998701,263.516289 C325.646509,249.86848 344.50078,241.427136 365.326633,241.427136 C367.834834,241.427136 370.314438,241.549578 372.759792,241.788811 C386.206796,203.523496 403.290432,166.968488 423.594846,132.539438 L424.397065,131.182171 Z" id="形状结合备份-6" fill="#FFFFFF" fill-rule="nonzero"></path>
        </g>
    </g>
</svg>