<?xml version="1.0" encoding="UTF-8"?>
<svg width="896px" height="896px" viewBox="0 0 896 896" version="1.1" xmlns="http://www.w3.org/2000/svg" xmlns:xlink="http://www.w3.org/1999/xlink">
    <title>Msgport White</title>
    <g id="页面-2" stroke="none" stroke-width="1" fill="none" fill-rule="evenodd">
        <g id="LOGO" transform="translate(-2455, -764)" fill="#FFFFFF" fill-rule="nonzero">
            <path d="M2902.73424,764 C3026.37263,764 3138.30619,814.144108 3219.33015,895.216162 C3300.35411,976.288216 3350.46847,1088.28822 3350.46847,1212 C3350.46847,1335.71178 3300.35411,1447.71178 3219.33015,1528.78384 C3138.30619,1609.85589 3026.37263,1660 2902.73424,1660 C2779.09584,1660 2667.16228,1609.85589 2586.13832,1528.78384 C2505.11436,1447.71178 2455,1335.71178 2455,1212 C2455,1088.28822 2505.11436,976.288216 2586.13832,895.216162 C2667.16228,814.144108 2779.09584,764 2902.73424,764 Z M2771.0691,1522.84303 L2769.9916,1523.3489 C2737.89129,1538.32551 2704.45269,1550.91284 2669.90518,1560.88302 C2736.49375,1605.48097 2816.57922,1631.48409 2902.73424,1631.48409 C2905.88667,1631.48409 2909.03098,1631.44928 2912.1668,1631.38002 C2886.80246,1604.62606 2863.54827,1575.85323 2842.67118,1545.32699 C2836.13083,1547.66497 2829.08254,1548.93802 2821.73709,1548.93802 C2804.54783,1548.93802 2788.98588,1541.96656 2777.72124,1530.69524 C2775.29574,1528.2683 2773.06947,1525.64201 2771.0691,1522.84303 Z M3035.6038,1305.64505 L3030.40716,1312.62628 C2987.53705,1369.30433 2936.16266,1419.1851 2878.1843,1460.3673 C2881.90671,1468.35207 2883.9849,1477.25983 2883.9849,1486.65327 C2883.9849,1503.41358 2877.36882,1518.62771 2866.60733,1529.82351 C2891.05897,1565.49964 2918.90199,1598.67028 2949.66835,1628.86978 C3095.73795,1612.60228 3219.14011,1521.23087 3280.45201,1394.23097 C3206.95814,1349.61835 3124.13577,1318.89367 3035.6038,1305.64505 Z M2660.13287,1358.34651 L2657.6291,1359.50012 C2617.01146,1378.31742 2578.61316,1401.11766 2542.93514,1427.40025 C2568.60273,1470.26652 2601.71875,1508.15787 2640.48436,1539.29646 C2682.11259,1528.79412 2722.17174,1514.36262 2760.25066,1496.42016 C2759.74933,1493.23823 2759.48928,1489.97613 2759.48928,1486.65327 C2759.48928,1469.45381 2766.4566,1453.88262 2777.72124,1442.61129 C2779.2681,1441.06351 2780.896,1439.59681 2782.59802,1438.21811 C2778.34612,1428.75711 2774.30143,1419.18323 2770.46824,1409.50241 C2763.77609,1410.88489 2756.84265,1411.61139 2749.73962,1411.61139 C2721.57409,1411.61139 2696.07499,1400.18828 2677.61727,1381.7196 C2670.73438,1374.83262 2664.83062,1366.96593 2660.13287,1358.34651 Z M2821.73709,1452.88442 C2812.41761,1452.88442 2803.98041,1456.66413 2797.87307,1462.77509 C2791.76574,1468.88605 2787.98828,1477.32826 2787.98828,1486.65327 C2787.98828,1495.97828 2791.76574,1504.42049 2797.87307,1510.53145 C2803.98041,1516.6424 2812.41761,1520.42211 2821.73709,1520.42211 C2831.05656,1520.42211 2839.49377,1516.6424 2845.6011,1510.53145 C2851.70843,1504.42049 2855.4859,1495.97828 2855.4859,1486.65327 C2855.4859,1477.32826 2851.70843,1468.88605 2845.6011,1462.77509 C2839.49377,1456.66413 2831.05656,1452.88442 2821.73709,1452.88442 Z M2936.48305,1298.29816 C2907.71461,1298.29816 2879.37315,1300.1273 2851.56851,1303.67585 C2851.68011,1305.62256 2851.73603,1307.58197 2851.73603,1309.55444 C2851.73603,1337.73669 2840.31969,1363.25093 2821.86197,1381.7196 C2814.66348,1388.92237 2806.394,1395.05351 2797.31304,1399.85336 C2800.78889,1408.60556 2804.44824,1417.26538 2808.28355,1425.82926 C2812.61667,1424.87189 2817.11813,1424.36851 2821.73709,1424.36851 C2836.40367,1424.36851 2849.88554,1429.44387 2860.52415,1437.93507 C2914.48041,1399.78692 2962.50272,1353.79266 3002.92975,1301.59129 C2981.0782,1299.40981 2958.91037,1298.29816 2936.48305,1298.29816 Z M2684.00671,1056.21061 L2683.40449,1056.58084 C2609.55517,1102.11328 2542.35472,1157.40647 2483.60048,1220.66199 C2484.90951,1285.9508 2501.13534,1347.57151 2529.00089,1402.26297 C2566.68684,1374.8097 2607.23775,1351.06613 2650.12305,1331.56795 C2648.56433,1324.47884 2647.74321,1317.11259 2647.74321,1309.55444 C2647.74321,1281.37219 2659.15955,1255.85795 2677.61727,1237.38928 C2690.30881,1224.6902 2706.32948,1215.32223 2724.257,1210.70848 C2722.75602,1192.07891 2721.9906,1173.23777 2721.9906,1154.21776 C2721.9906,1131.64434 2723.06874,1109.32289 2725.17623,1087.30212 C2713.06756,1083.09635 2702.21806,1076.19492 2693.34464,1067.31623 C2689.9248,1063.89436 2686.79848,1060.17881 2684.00671,1056.21061 Z M2749.73962,1236.0134 C2729.44387,1236.0134 2711.06952,1244.24476 2697.7691,1257.55307 C2684.46869,1270.86138 2676.24221,1289.24664 2676.24221,1309.55444 C2676.24221,1329.86224 2684.46869,1348.2475 2697.7691,1361.55581 C2711.06952,1374.86412 2729.44387,1383.09548 2749.73962,1383.09548 C2770.03537,1383.09548 2788.40973,1374.86412 2801.71014,1361.55581 C2815.01056,1348.2475 2823.23703,1329.86224 2823.23703,1309.55444 C2823.23703,1289.24664 2815.01056,1270.86138 2801.71014,1257.55307 C2788.40973,1244.24476 2770.03537,1236.0134 2749.73962,1236.0134 Z M3303.76158,1089.33386 L3303.28763,1087.79969 L3305.92876,1087.21401 C3270.65253,1095.1272 3234.54352,1100.83384 3197.75368,1104.18149 C3194.91441,1120.01443 3187.25439,1134.17439 3176.3486,1145.08666 C3162.36959,1159.07396 3143.05777,1167.72529 3121.72652,1167.72529 C3119.37821,1167.72529 3117.05436,1167.62044 3114.75941,1167.41517 C3097.98662,1206.59596 3077.70565,1243.91908 3054.31504,1278.98874 L3053.84042,1279.69678 L3057.39166,1280.30057 C3141.86982,1295.17423 3221.07462,1325.35871 3292.04188,1367.88851 C3311.3558,1319.70636 3321.96947,1267.09338 3321.96947,1212 L3321.96947,1209.71516 C3321.74028,1167.85266 3315.38943,1127.44135 3303.76158,1089.33386 Z M2749.73962,1262.27806 C2762.78689,1262.27806 2774.59897,1267.56965 2783.14924,1276.12499 C2791.69951,1284.68033 2796.98796,1296.49943 2796.98796,1309.55444 C2796.98796,1322.60945 2791.69951,1334.42855 2783.14924,1342.98389 C2774.59897,1351.53923 2762.78689,1356.83082 2749.73962,1356.83082 C2736.69235,1356.83082 2724.88027,1351.53923 2716.33,1342.98389 C2707.77974,1334.42855 2702.49129,1322.60945 2702.49129,1309.55444 C2702.49129,1296.49943 2707.77974,1284.68033 2716.33,1276.12499 C2724.88027,1267.56965 2736.69235,1262.27806 2749.73962,1262.27806 Z M2749.73962,1283.28978 C2742.49114,1283.28978 2735.92887,1286.22955 2731.17872,1290.98252 C2726.42857,1295.73549 2723.49055,1302.30165 2723.49055,1309.55444 C2723.49055,1316.80722 2726.42857,1323.37339 2731.17872,1328.12636 C2735.92887,1332.87932 2742.49114,1335.8191 2749.73962,1335.8191 C2756.9881,1335.8191 2763.55037,1332.87932 2768.30052,1328.12636 C2773.05067,1323.37339 2775.9887,1316.80722 2775.9887,1309.55444 C2775.9887,1302.30165 2773.05067,1295.73549 2768.30052,1290.98252 C2763.55037,1286.22955 2756.9881,1283.28978 2749.73962,1283.28978 Z M2812.1344,1067.31623 C2797.0715,1082.38806 2776.31432,1091.76223 2753.36881,1091.93069 C2751.46294,1112.43626 2750.4896,1133.21327 2750.4896,1154.21776 C2750.4896,1172.16569 2751.20027,1189.94754 2752.59503,1207.53665 C2779.62635,1208.28028 2804.03014,1219.54685 2821.86197,1237.38928 C2832.53454,1248.06818 2840.85293,1261.10266 2845.97138,1275.64646 C2875.59307,1271.77705 2905.80525,1269.78224 2936.48305,1269.78224 C2965.59307,1269.78224 2994.28386,1271.57838 3022.45823,1275.08933 C3047.65731,1239.03052 3069.37003,1200.35368 3087.11014,1159.54868 C3079.67537,1155.8134 3072.92727,1150.91294 3067.10445,1145.08666 C3056.26178,1134.23756 3048.62742,1120.17825 3045.74752,1104.45579 C2968.75776,1097.72758 2894.72438,1080.67308 2825.0408,1054.68311 L2823.02275,1053.92834 C2819.85459,1058.76042 2816.20213,1063.24608 2812.1344,1067.31623 Z M2596.33852,925.683725 L2595.42355,926.664352 C2533.14658,993.785919 2492.56519,1081.34246 2484.84271,1178.16629 C2540.81252,1121.69829 2603.55574,1071.9551 2671.75564,1030.27282 C2669.79161,1023.14682 2668.74247,1015.63905 2668.74247,1007.8861 C2668.74247,998.120376 2670.40706,988.743669 2673.46781,980.024548 C2646.98685,963.497916 2621.48705,945.542274 2597.07522,926.268193 L2596.33852,925.683725 Z M3121.72652,1041.65494 C3108.26506,1041.65494 3096.07799,1047.11452 3087.25628,1055.94146 C3078.43458,1064.7684 3072.97824,1076.9627 3072.97824,1090.43216 C3072.97824,1103.90162 3078.43458,1116.09592 3087.25628,1124.92286 C3096.07799,1133.7498 3108.26506,1139.20938 3121.72652,1139.20938 C3135.18799,1139.20938 3147.37506,1133.7498 3156.19677,1124.92286 C3165.01847,1116.09592 3170.47481,1103.90162 3170.47481,1090.43216 C3170.47481,1076.9627 3165.01847,1064.7684 3156.19677,1055.94146 C3147.37506,1047.11452 3135.18799,1041.65494 3121.72652,1041.65494 Z M3141.64309,915.816343 L3137.42073,915.983512 C3030.23389,921.203876 2927.67796,944.069445 2832.59274,981.739801 C2835.28231,989.970118 2836.73656,998.758177 2836.73656,1007.8861 C2836.73656,1014.7207 2835.92125,1021.36475 2834.38264,1027.72621 C2901.16799,1052.69849 2972.09842,1069.17212 3045.85751,1075.83363 C3048.81437,1060.34315 3056.3942,1046.49427 3067.10445,1035.77766 C3081.08346,1021.79036 3100.39528,1013.13903 3121.72652,1013.13903 C3124.97922,1013.13903 3128.18495,1013.34019 3131.33199,1013.73075 C3137.10387,981.828092 3140.59811,949.131193 3141.64309,915.816343 Z M3184.72431,914.834171 C3179.86324,914.834171 3175.01065,914.870431 3170.18133,914.952453 C3169.12421,951.59967 3165.22449,987.537224 3158.69528,1022.54935 C3165.20385,1026.10471 3171.14561,1030.57158 3176.3486,1035.77766 C3186.99586,1046.43124 3194.54942,1060.18037 3197.54521,1075.56012 C3230.24264,1072.48979 3262.38039,1067.48883 3293.84288,1060.67385 C3272.64175,1005.79869 3240.21799,956.50464 3199.39897,915.600903 L3198.44715,914.929069 C3193.87913,914.866379 3189.30548,914.834171 3184.72431,914.834171 Z M2752.73952,952.355109 C2737.41415,952.355109 2723.53964,958.570626 2713.49647,968.619759 C2703.4533,978.668891 2697.24147,992.551638 2697.24147,1007.8861 C2697.24147,1023.22056 2703.4533,1037.1033 2713.49647,1047.15244 C2723.53964,1057.20157 2737.41415,1063.41709 2752.73952,1063.41709 C2768.06488,1063.41709 2781.93939,1057.20157 2791.98256,1047.15244 C2802.02573,1037.1033 2808.23756,1023.22056 2808.23756,1007.8861 C2808.23756,992.551638 2802.02573,978.668891 2791.98256,968.619759 C2781.93939,958.570626 2768.06488,952.355109 2752.73952,952.355109 Z M2902.73424,792.515913 C2886.8111,792.515913 2871.09528,793.404029 2855.63357,795.133569 C2828.32536,837.636919 2805.72326,883.452602 2788.56369,931.845265 C2797.36709,936.004234 2805.33148,941.649013 2812.1344,948.455963 C2814.63019,950.953239 2816.96965,953.606936 2819.13684,956.401098 C2919.25648,916.355824 3027.48136,892.269169 3140.66565,887.286186 L3141.93381,887.232268 L3141.93018,886.69915 C3141.8542,880.146764 3141.68349,873.61716 3141.41937,867.111643 C3073.69127,820.074797 2991.4291,792.515913 2902.73424,792.515913 Z M2818.5302,800.979136 L2816.74923,801.346568 C2740.75255,817.196383 2672.29687,853.628037 2616.99783,904.169545 L2616.12433,904.970667 L2616.80852,905.509916 C2639.40285,923.234671 2662.95666,939.793431 2687.37693,955.094964 C2689.24857,952.7767 2691.24108,950.560772 2693.34464,948.455963 C2708.54511,933.246466 2729.54437,923.839196 2752.73952,923.839196 C2755.53307,923.839196 2758.29477,923.975649 2761.01832,924.242257 C2775.99515,881.598323 2795.02233,840.860404 2817.63672,802.491712 L2818.5302,800.979136 Z" id="Msgport-White"></path>
        </g>
    </g>
</svg>